<svg version="1" xmlns="http://www.w3.org/2000/svg" width="682.667" height="682.667" viewBox="0 0 512.000000 512.000000"><path d="M391.7 26.1c-7.5 2.5-12.8 5.9-18.1 11.5-16.7 17.4-16.6 44.9.3 62 9.1 9.3 19 13.4 32.1 13.4 21.1 0 38.2-13.2 43.5-33.5 5.9-22.8-7.4-46.7-29.8-53.7-8-2.5-20.4-2.4-28 .3zM253.5 47.7c-4.6 1.5-9.1 5.7-51.2 47.7-34.3 34.1-46.8 47.2-48.4 50.6-5 10.7-3.1 23.2 5 32.2 6.3 7.1 12.5 9.8 22.1 9.8 12.6 0 13.1-.4 51.5-38.9 18.7-18.8 34.3-34.1 34.7-34.1.5 0 5.5 3.4 11.3 7.6l10.6 7.7 17.2-17c11.4-11.3 19.2-18.1 23.1-20.3l5.9-3.4-2.3-1.8c-8.9-7.2-56.4-38.9-60.3-40.2-5.9-2-12.7-2-19.2.1zM36.9 71.3c-9.4 6.3-8.8 19.3 1.2 25.2 3.3 1.9 5.2 2 44.9 2 39.7 0 41.6-.1 44.9-2 10-5.9 10.6-18.9 1.2-25.2l-3.4-2.3H40.3l-3.4 2.3zM355.9 114c-2.5.5-6.3 1.7-8.5 2.8-2.3 1.2-29.9 28.1-68.5 66.9-61.5 61.7-64.7 65.1-66.2 70.2-2.1 6.8-2.1 12.4 0 19.2 1.5 5.1 4 7.8 38.5 42.4 20.2 20.4 36.8 37.5 36.8 38s-20 21-44.3 45.5c-41.8 41.9-44.5 44.8-46 49.9-3.4 10.9-1.3 21 6.2 29.3 6.3 7 12.5 9.8 22.1 9.8 13.1 0 10.9 1.9 74.6-62.1 54.2-54.5 57.2-57.7 58.7-62.8 2.1-6.8 2.1-12.4 0-19.2-1.5-5.1-4-7.8-38.5-42.4-20.2-20.4-36.8-37.5-36.8-38 0-.6 10.6-11.6 23.5-24.5l23.5-23.5v11.1c0 7.8.5 12.8 1.7 16.4 2.2 6.9 9.6 15 16.5 18.1l5.3 2.4h134l5.3-2.4c10.4-4.7 18.2-16.5 18.2-27.6 0-10.8-7.5-22.5-17.5-27.1l-5-2.4H391v-32.3c0-38.9-.2-40.1-8.8-48.7-7.5-7.5-16.4-10.5-26.3-9zM6.9 131.3c-9.4 6.3-8.8 19.3 1.2 25.2 3.3 1.9 5.2 2 44.9 2 39.7 0 41.6-.1 44.9-2 10-5.9 10.6-18.9 1.2-25.2l-3.4-2.3H10.3l-3.4 2.3zM36.9 191.3c-9.4 6.3-8.8 19.3 1.2 25.2 3.3 1.9 5.2 2 44.9 2 39.7 0 41.6-.1 44.9-2 10-5.9 10.6-18.9 1.2-25.2l-3.4-2.3H40.3l-3.4 2.3z"/><path d="M100.9 361.7c-78.1 78.3-81.7 82-83.2 87.2-3.4 10.9-1.3 21 6.2 29.3 6.3 7 12.5 9.8 22.1 9.8 5.8 0 8.6-.5 12.5-2.4 4-1.9 20.6-18 82.9-80.4l78-78.1-13.5-13.8c-11.5-11.8-14.2-15.1-17.7-22.2-2.3-4.6-4.2-9-4.2-9.7 0-.8-.3-1.4-.8-1.4-.4 0-37.4 36.8-82.3 81.7z"/></svg>