<svg version="1" xmlns="http://www.w3.org/2000/svg" width="682.667" height="682.667" viewBox="0 0 512.000000 512.000000"><path d="M392.5 25.7c-21.6 7.7-34.3 28.3-30.7 49.7 2.5 14.8 11.4 26.6 25.1 33.4 7.3 3.6 7.7 3.7 19.1 3.7 11.4 0 11.8-.1 19.1-3.7 34.2-16.9 34.2-63.7 0-80.6-6.8-3.4-8.2-3.7-17.5-4-7.7-.2-11.3.2-15.1 1.5zM256.5 46.9c-1.6.4-4.8 1.7-7 2.9-5.8 3-92.7 90.4-95.6 96.2-3.5 6.8-3.3 18.6.3 25.6 5.3 10.2 15.4 16.4 26.8 16.4 12.3 0 12 .2 50.5-38.1 19.3-19.2 35.4-34.9 35.9-34.9.4 0 5.5 3.4 11.2 7.6l10.5 7.7 17.7-17.5c10.6-10.4 19.8-18.7 23-20.5l5.4-3-6.4-4.5c-22.2-15.7-48.9-33.8-52.6-35.7-4.7-2.4-14.8-3.5-19.7-2.2zM36.9 71.3C33 73.9 30 79.2 30 83.5c0 4.3 3 9.6 6.9 12.2l3.4 2.3h85.4l3.4-2.3c8.9-5.9 8.9-18.5 0-24.4l-3.4-2.3H40.3l-3.4 2.3zM349 116.1c-6.4 2.8-130.9 127.1-134.8 134.4-2.2 4.2-2.6 6.3-2.6 13 0 12.6.3 13.1 40.8 53.5 19.6 19.5 35.6 35.9 35.6 36.5 0 .6-19.4 20.4-43.1 44-31 31-43.8 44.4-45.7 48-2.2 4.2-2.6 6.3-2.6 13s.4 8.8 2.6 13.1c5.3 10.2 15.4 16.4 26.8 16.4 12.8 0 9.7 2.6 72.7-60.3 64-63.8 61.8-61.2 61.7-74.7 0-12.1-.6-12.9-40.8-53-19.6-19.5-35.6-35.9-35.6-36.5 0-.6 10.5-11.5 23.4-24.4l23.4-23.3.4 12.8c.4 11.5.7 13.5 3.1 18 1.4 2.8 4.7 7 7.2 9.2 8.5 7.4 5.9 7.2 80 7.2s71.5.2 80-7.2c7.1-6.3 9.9-12.6 9.9-22.3 0-9.7-2.8-16-9.9-22.3-8.2-7.2-7.9-7.2-62.1-7.2h-48.3l-.3-34.3-.3-34.2-2.7-5.1c-3.4-6.4-10.5-12.8-16.5-14.8-6.6-2.3-16.7-2-22.3.5zM6.9 131.3c-8.9 5.9-8.9 18.5 0 24.4l3.4 2.3h85.4l3.4-2.3c8.9-5.9 8.9-18.5 0-24.4l-3.4-2.3H10.3l-3.4 2.3zM36.9 191.3c-3.9 2.6-6.9 7.9-6.9 12.2 0 4.3 3 9.6 6.9 12.2l3.4 2.3h85.4l3.4-2.3c8.9-5.9 8.9-18.5 0-24.4l-3.4-2.3H40.3l-3.4 2.3z"/><path d="M101.8 360.7c-56.6 56.7-81.3 82.1-82.9 85.3-3.5 6.8-3.3 18.6.3 25.6 3.4 6.5 10.5 12.8 17 15 6.6 2.2 16.8 1.6 22.8-1.4 3.3-1.6 25.7-23.3 82.5-80.2l77.9-78-12.6-12.7c-13.2-13.5-18.3-20.4-21.4-29.1-1-2.8-2.1-5.2-2.4-5.2-.3 0-36.8 36.3-81.2 80.7z"/></svg>